<svg xmlns="http://www.w3.org/2000/svg" width="16" height="16" viewBox="0 0 16 16">
  <circle cx="8.028" cy="8" r="8" fill="#fff"/>
  <circle cx="8.028" cy="8" r="7" fill="#737373"/>
  <g fill="#fff">
    <path d="M3.12 6.664c.163-.131.743.134 1.188-.013.213-.07.018-.326.325-.37.152-.022.158.261.339.145.058-.037.037-.149.056-.163.047-.034 0-.314.114-.383.4-.242.335.594.764.212.249-.313-.241-.571-.127-.883.16-.437.447-.088.734-.2.212-.081-.035-.59.145-.681.338-.171.264.382.529.412.177.02.533-.284.51-.456-.026-.2-.445-.275-.529-.452-.1-.214.151-.415.066-.563-.108-.189-.467-.362-.672-.182-.311.272.179.293.056.464-.144.2-.173-.044-.351.055-.2.112-.173.438-.461.317-.684-.288.709-.849.38-1.272-.05-.064-.274-.038-.294-.109-.026-.1.172-.191.233-.224a5.986 5.986 0 0 0-4.077 5.094s.12.2.413.009.576.053.68-.152c.171-.335-.341-.347-.021-.605z"/>
    <path d="M6.44 2.439c0 .174-.008.659.38.165a.781.781 0 0 1 .791-.134c-.076-.026-.539.31-.386.4s.459-.115.551-.208a1.343 1.343 0 0 0 .334-.514c.024-.134.024-.15.024-.15a6.03 6.03 0 0 0-1.852.248s.158.092.158.193z"/>
    <path d="M8.744 2.491c.131.06-.44.216-.4.374s.557.187.758.235.177.151.355.33c.3.3.349-.572.646-.617.237-.036.12-.2.043-.245s.124-.124.124-.124a5.966 5.966 0 0 0-1.735-.42s-.3-.036-.168.169a.806.806 0 0 0 .377.298z"/>
    <path d="M13.547 5.71c-.011-.027 0 .1-.053.129s-.12-.208-.233.025a.2.2 0 0 1-.1.16c-.088 0 .06-.235.059-.258 0-.041-.04-.064-.052-.1-.033-.109-.064-.222-.077-.247-.023-.043.036-.095.048-.17-.1-.121.013-.322-.035-.4a6.029 6.029 0 0 0-1-1.22l-.008.01a6.1 6.1 0 0 0 .377.63c.036.062-.257-.055-.187 0-.08-.062-.171-.268-.247-.34-.1-.1-.142-.194-.224-.27-.124-.114-.294-.144-.306-.115-.026.066.12.343.15.394.174.3.276.189.419.242.25.093.441.963.74.941-.094.007-.365-.1-.441 0s.116.1.276.591c.147.452.117.217.288.258a.481.481 0 0 1 .239.418c-.007.087-.107.093-.128.181-.026.112.088.337.065.433-.028.116-.133.143-.21.293-.109 0 .014-.114-.21-.082-.169.024-.151.331-.355.387-.1.029-.217.064-.262.036-.1-.063-.045-.261-.112-.232-.118.051-.187.292-.171.471s.231.133.072.36c-.188.269-.243-.091-.337-.045s-.124.044-.15.173c-.008.04.057.028.049.094-.011.086-.12.128-.193.252s.122.067.145.076c0-.013.328.226.114.315a.57.57 0 0 0-.327.576c-.005.127.19-.154.36-.113s.053.686.162.629c.066-.035.081-.091.126-.123s.133-.051.174-.1.224-.554.462-.4c.1.061.006.456.094.438.067-.014.233-.248.316-.2.141.09.053.056.319.229s.009.281.276.184c.43-.156.494-1.485.518-1.819a5.932 5.932 0 0 0-.43-2.691z"/>
    <path d="M9.339 12.259c.144-.134.265-.292.123-.475-.088-.113-.34-.144-.51-.335a.31.31 0 0 0-.276-.134c-.059.024.128.245.128.27 0 .068.094.2.079.272-.034.153-.212.219-.351.23a.2.2 0 0 1-.18-.013c.015.12.033-.432.006-.276.012-.072.129-.186.136-.234.01-.068-.572-.177-.155-.232s.194-.348.15-.52c-.1-.373.011-.3-.261-.44-.083-.042-.331.18-.415.141-.047-.022.049-.2.027-.252s-.17.006-.221-.025c-.1-.059 0-.47-.129-.47-.019 0-.246.217-.253.144-.07-.724-.2.092-.318.068s-.068-.354.03-.342c.17-.1-.521-.547.131-.469.175.021.481.1.3-.015s-.38-.048-.4-.1c-.157-.441-.282.1-.527.062-.051-.008.029-.285-.021-.283-.089 0-.176.028-.258.268a1.107 1.107 0 0 1-.355.129c-.137.066.193.348-.156.2s-.241-.35-.266-.357c-.493-.13-.882-.26-1.168.436-.112.271.245.428-.028.648-.082.066-.694.055-.7.174 0 .092.08.081-.049.165s-.271-.072-.151.174.445.646.7.48a6.019 6.019 0 0 1 .273.674.249.249 0 0 1-.2.021c-.015 0 .776.866.79.935.037.18-.186.222-.186.222a5.966 5.966 0 0 0 2.129.884s-.038-.12.463-.273a.832.832 0 0 0 .6-.084 1.53 1.53 0 0 1 .6-.256c.919-.211.424-.599.869-1.012z"/>
    <path d="M12.561 11.808a2.138 2.138 0 0 0-.387.285 1.374 1.374 0 0 0-.322.374c-.187.122.119-.272.011-.209-.035.02-.05.075-.161.125-.02-.02-.086 0-.124.011-.18.065-.217.228-.345.19a.46.46 0 0 0-.429.128c-.136-.071-.2.2-.258.171 0-.045.076-.122 0-.133s-.276-.017-.347.116c-.017.032.138.026.189.075.025.024.225.291.061.185-.064-.041-.158.079-.389.135a.567.567 0 0 0-.215-.006.436.436 0 0 0-.194.082c-.145.049-.233.074-.132.084.185.019.076.1.151.09 0 0-.438.092-.292.079a1.117 1.117 0 0 1 .133-.015.3.3 0 0 0 .111.008c.194-.032.244-.053.338-.072-.048.019-.226.061-.278.139-.021.031-.11.039-.2.064a.972.972 0 0 1-.17.081 1.086 1.086 0 0 1-.317.085.422.422 0 0 0-.229.071 5.992 5.992 0 0 0 3.975-2.265.192.192 0 0 1-.05.04 1.262 1.262 0 0 1-.13.082z"/>
    <path d="M8.088 10.067c.18-.007.81.013.9-.173.128-.278-.247-.616-.535-.594-.353.027-.599.777-.365.767z"/>
    <path d="M12.755 10.392c-.027.04-.685 0-.371.284.031.028.347-.05.333 0-.046.149-.126.123-.2.206a1.3 1.3 0 0 0-.237.417c-.027-.055-.053.026-.025.053 0 .012-.064.074-.061.086-.048.111-.153.2-.07.173.246-.064.356-.257.676-.607s.254-1.057-.045-.612z"/>
    <path d="M11.939 11.651c-.042-.066-.147 0-.182.051q.027.1.159-.008c.021-.02.037-.021.023-.043z"/>
  </g>
<style id="xstyle-1" class="xstyle" type="text/css"></style><style id="xstyle-2" class="xstyle" type="text/css"></style><style id="xstyle-3" class="xstyle" type="text/css"></style><style id="xstyle-7" class="xstyle" type="text/css"></style><style id="xstyle-9" class="xstyle" type="text/css"></style><style id="xstyle-11" class="xstyle" type="text/css"></style><style id="xstyle-15" class="xstyle" type="text/css"></style><style id="xstyle-16" class="xstyle" type="text/css"></style><style id="xstyle-17" class="xstyle" type="text/css"></style><style id="xstyle-19" class="xstyle" type="text/css">/*

2014-10-18:
- changed the selected article look

2014-09-15:
- more difference between read and unread articles
- more highlight for the selected article
- green highlight won't show up at saved articles

2014-08-28:
- trained articles are now highlighted with color in the article lists

2014-08-25 more:
- removed Open Sans (not used anymore)
- many fixes for List view for Feed and Text mode (hopefully)
- date is only hidden in split view
- tweaked River of News view

2014-08-25:
- fixed tagging buttons at contents
- styled comment section headers
- fixed collapse, unread, text, icons allignments in the tree
- fixed resizer splitters for top and down view
- increased compatibility with custom text sizes

2014-08-19 more:
- splitters/resizers restyled
- vertical cursor indicator is visible again in articles
- "Shared by" part polished
- made the icons a little less "loud"
- realigned the share/train button contents
- fixed some colors in the footer

2014-08-19:
- more cleaner style
- Share dialog displays correctly
- Save dialog displays correctly
- Changed the font to Segoe UI because of the foreign characters
- made the article list items multilined to avoid loading more than 60 article contents at once in split view
- enhanced article titles in the article list
- the read/unread difference is more clear at the article list and at the stories
- styled the buttons
- styled the footer

By Zoltan Wacha:
- http://www.ittahelye.hu
- http://www.wishfame.com

Based on the fine work of Paulo Schilling:
- http://facebook.com/pauloschilling
- http://plus.google.com/+pauloschilling
- http://twitter.com/pauloschilling

Credits
- Open Sans from Google Web Fonts
- Universal 14 Icon Pack by Freepik

*/</style></svg>